<svg xmlns="http://www.w3.org/2000/svg" xmlns:xlink="http://www.w3.org/1999/xlink" width="18" height="18" viewBox="0 0 18 18">
  <defs>
    <clipPath id="clip-path">
      <rect id="사각형_354102" data-name="사각형 354102" width="18" height="18" transform="translate(1304 1165)" fill="#ff4713" stroke="#707070" stroke-width="1"/>
    </clipPath>
  </defs>
  <g id="마스크_그룹_219" data-name="마스크 그룹 219" transform="translate(-1304 -1165)" clip-path="url(#clip-path)">
    <g id="wifi-line_3_" data-name="wifi-line (3)" transform="translate(1304 1165)">
      <path id="패스_862418" data-name="패스 862418" d="M0,0H18V18H0Z" fill="none"/>
      <path id="패스_862419" data-name="패스 862419" d="M.518,5.248a13.5,13.5,0,0,1,16.965,0l-.942,1.167a12,12,0,0,0-15.081,0ZM2.873,8.165a9.752,9.752,0,0,1,12.253,0l-.943,1.167a8.252,8.252,0,0,0-10.368,0L2.873,8.165ZM5.23,11.083a6,6,0,0,1,7.541,0l-.943,1.167a4.5,4.5,0,0,0-5.655,0L5.23,11.082ZM7.586,14a2.249,2.249,0,0,1,2.828,0L9,15.75,7.586,14Z" transform="translate(0 0)" fill="#ff4713"/>
    </g>
  </g>
</svg>
